<mxfile host="app.diagrams.net" modified="2025-02-05T17:25:32.828Z" agent="Mozilla/5.0 (Windows NT 10.0; Win64; x64; rv:134.0) Gecko/20100101 Firefox/134.0" version="24.4.13" etag="Dcs-3Mdo_4Ejoh49yIUP" type="device">
  <diagram id="Fs4fJ-pnp7dX2vI-OWcd" name="Page-1">
    <mxGraphModel dx="2606" dy="1788" grid="1" gridSize="10" guides="1" tooltips="1" connect="1" arrows="1" fold="1" page="0" pageScale="1" pageWidth="1920" pageHeight="1200" background="none" math="0" shadow="0">
      <root>
        <mxCell id="0" />
        <mxCell id="1" parent="0" />
        <mxCell id="node2" value="&lt;p style=&quot;margin:0px;margin-top:4px;text-align:center;&quot;&gt;&lt;b&gt;administrator&lt;/b&gt;&lt;/p&gt;&lt;hr size=&quot;1&quot;/&gt;&lt;p style=&quot;margin:0 0 0 4px;line-height:1.6;&quot;&gt; UserId: int&lt;/p&gt;" style="verticalAlign=top;align=left;overflow=fill;fontSize=14;fontFamily=Helvetica;html=1;rounded=1;shadow=0;comic=0;labelBackgroundColor=none;strokeWidth=1;fillColor=#ffecfc;strokeColor=#AD93A0;arcSize=4;fontColor=default;" parent="1" vertex="1">
          <mxGeometry x="1067" y="203" width="150" height="68" as="geometry" />
        </mxCell>
        <mxCell id="node20" value="&lt;p style=&quot;margin:0px;margin-top:4px;text-align:center;&quot;&gt;&lt;b&gt;category&lt;/b&gt;&lt;/p&gt;&lt;hr size=&quot;1&quot;/&gt;&lt;p style=&quot;margin:0 0 0 4px;line-height:1.6;&quot;&gt; Name: varchar(128)&lt;/p&gt;&lt;hr size=&quot;1&quot;/&gt;&lt;p style=&quot;margin:0 0 0 4px;line-height:1.6;&quot;&gt; CategoryId: int&lt;/p&gt;" style="verticalAlign=top;align=left;overflow=fill;fontSize=14;fontFamily=Helvetica;html=1;rounded=1;shadow=0;comic=0;labelBackgroundColor=none;strokeWidth=1;fillColor=#ffecfc;strokeColor=#AD93A0;arcSize=4;fontColor=default;" parent="1" vertex="1">
          <mxGeometry x="1286" y="736" width="150" height="104" as="geometry" />
        </mxCell>
        <mxCell id="node7" value="&lt;p style=&quot;margin:0px;margin-top:4px;text-align:center;&quot;&gt;&lt;b&gt;comment&lt;/b&gt;&lt;/p&gt;&lt;hr size=&quot;1&quot;/&gt;&lt;p style=&quot;margin:0 0 0 4px;line-height:1.6;&quot;&gt; Content: varchar(512)&lt;br/&gt; DatePosted: datetime&lt;br/&gt; UserId: int&lt;br/&gt; ProgramId: int&lt;/p&gt;&lt;hr size=&quot;1&quot;/&gt;&lt;p style=&quot;margin:0 0 0 4px;line-height:1.6;&quot;&gt; CommentId: int&lt;/p&gt;" style="verticalAlign=top;align=left;overflow=fill;fontSize=14;fontFamily=Helvetica;html=1;rounded=1;shadow=0;comic=0;labelBackgroundColor=none;strokeWidth=1;fillColor=#ffecfc;strokeColor=#AD93A0;arcSize=4;fontColor=default;" parent="1" vertex="1">
          <mxGeometry x="387" y="1212" width="165" height="168" as="geometry" />
        </mxCell>
        <mxCell id="node0" value="&lt;p style=&quot;margin:0px;margin-top:4px;text-align:center;&quot;&gt;&lt;b&gt;exercise&lt;/b&gt;&lt;/p&gt;&lt;hr size=&quot;1&quot;/&gt;&lt;p style=&quot;margin:0 0 0 4px;line-height:1.6;&quot;&gt; Name: varchar(128)&lt;br/&gt; Description: varchar(512)&lt;br/&gt; VideoLink: varchar(255)&lt;br/&gt; FirstExerciseMetricId: int&lt;br/&gt; SecondExerciseMetricId: int&lt;/p&gt;&lt;hr size=&quot;1&quot;/&gt;&lt;p style=&quot;margin:0 0 0 4px;line-height:1.6;&quot;&gt; ExerciseId: int&lt;/p&gt;" style="verticalAlign=top;align=left;overflow=fill;fontSize=14;fontFamily=Helvetica;html=1;rounded=1;shadow=0;comic=0;labelBackgroundColor=none;strokeWidth=1;fillColor=#ffecfc;strokeColor=#AD93A0;arcSize=4;fontColor=default;" parent="1" vertex="1">
          <mxGeometry x="1699" y="974" width="203" height="186" as="geometry" />
        </mxCell>
        <mxCell id="node4" value="&lt;p style=&quot;margin:0px;margin-top:4px;text-align:center;&quot;&gt;&lt;b&gt;exercise_feedback&lt;/b&gt;&lt;/p&gt;&lt;hr size=&quot;1&quot;/&gt;&lt;p style=&quot;margin:0 0 0 4px;line-height:1.6;&quot;&gt; Skipped: tinyint(1)&lt;br/&gt; TraineeExercisingId: int&lt;br/&gt; ExerciseId: int&lt;br/&gt; ProgramExerciseId: int&lt;/p&gt;&lt;hr size=&quot;1&quot;/&gt;&lt;p style=&quot;margin:0 0 0 4px;line-height:1.6;&quot;&gt; Id: int&lt;/p&gt;" style="verticalAlign=top;align=left;overflow=fill;fontSize=14;fontFamily=Helvetica;html=1;rounded=1;shadow=0;comic=0;labelBackgroundColor=none;strokeWidth=1;fillColor=#ffecfc;strokeColor=#AD93A0;arcSize=4;fontColor=default;" parent="1" vertex="1">
          <mxGeometry x="1341" y="1424" width="194" height="166" as="geometry" />
        </mxCell>
        <mxCell id="node19" value="&lt;p style=&quot;margin:0px;margin-top:4px;text-align:center;&quot;&gt;&lt;b&gt;exercise_metric&lt;/b&gt;&lt;/p&gt;&lt;hr size=&quot;1&quot;/&gt;&lt;p style=&quot;margin:0 0 0 4px;line-height:1.6;&quot;&gt; Name: varchar(128)&lt;br/&gt; Unit: varchar(128)&lt;/p&gt;&lt;hr size=&quot;1&quot;/&gt;&lt;p style=&quot;margin:0 0 0 4px;line-height:1.6;&quot;&gt; Id: int&lt;/p&gt;" style="verticalAlign=top;align=left;overflow=fill;fontSize=14;fontFamily=Helvetica;html=1;rounded=1;shadow=0;comic=0;labelBackgroundColor=none;strokeWidth=1;fillColor=#ffecfc;strokeColor=#AD93A0;arcSize=4;fontColor=default;" parent="1" vertex="1">
          <mxGeometry x="1716" y="724" width="169" height="121" as="geometry" />
        </mxCell>
        <mxCell id="node15" value="&lt;p style=&quot;margin:0px;margin-top:4px;text-align:center;&quot;&gt;&lt;b&gt;exercise_set&lt;/b&gt;&lt;/p&gt;&lt;hr size=&quot;1&quot;/&gt;&lt;p style=&quot;margin:0 0 0 4px;line-height:1.6;&quot;&gt; ProgramExericseId: int&lt;br/&gt; RestTime: int&lt;br/&gt; FirstMetricValue: varchar(128)&lt;br/&gt; SecondMetricValue: varchar(128)&lt;/p&gt;&lt;hr size=&quot;1&quot;/&gt;&lt;p style=&quot;margin:0 0 0 4px;line-height:1.6;&quot;&gt; ExerciseSetId: int&lt;/p&gt;" style="verticalAlign=top;align=left;overflow=fill;fontSize=14;fontFamily=Helvetica;html=1;rounded=1;shadow=0;comic=0;labelBackgroundColor=none;strokeWidth=1;fillColor=#ffecfc;strokeColor=#AD93A0;arcSize=4;fontColor=default;" parent="1" vertex="1">
          <mxGeometry x="1773" y="1424" width="236" height="166" as="geometry" />
        </mxCell>
        <mxCell id="node17" value="&lt;p style=&quot;margin:0px;margin-top:4px;text-align:center;&quot;&gt;&lt;b&gt;exercise_set_feedback&lt;/b&gt;&lt;/p&gt;&lt;hr size=&quot;1&quot;/&gt;&lt;p style=&quot;margin:0 0 0 4px;line-height:1.6;&quot;&gt; ExerciseFeedbackId: int&lt;br/&gt; Skipped: tinyint(1)&lt;br/&gt; Completed: tinyint(1)&lt;br/&gt; FirstMetricValueFeedback: varchar(128)&lt;br/&gt; SecondMetricValueFeedback: varchar(128)&lt;/p&gt;&lt;hr size=&quot;1&quot;/&gt;&lt;p style=&quot;margin:0 0 0 4px;line-height:1.6;&quot;&gt; Id: int&lt;/p&gt;" style="verticalAlign=top;align=left;overflow=fill;fontSize=14;fontFamily=Helvetica;html=1;rounded=1;shadow=0;comic=0;labelBackgroundColor=none;strokeWidth=1;fillColor=#ffecfc;strokeColor=#AD93A0;arcSize=4;fontColor=default;" parent="1" vertex="1">
          <mxGeometry x="886" y="1424" width="297" height="186" as="geometry" />
        </mxCell>
        <mxCell id="node1" value="&lt;p style=&quot;margin:0px;margin-top:4px;text-align:center;&quot;&gt;&lt;b&gt;notification&lt;/b&gt;&lt;/p&gt;&lt;hr size=&quot;1&quot;/&gt;&lt;p style=&quot;margin:0 0 0 4px;line-height:1.6;&quot;&gt; MarkRead: tinyint(1)&lt;br/&gt; Metadata: varchar(255)&lt;br/&gt; Date: datetime&lt;br/&gt; UserId: int&lt;br/&gt; SenderId: int&lt;br/&gt; NotificationType: tinyint&lt;/p&gt;&lt;hr size=&quot;1&quot;/&gt;&lt;p style=&quot;margin:0 0 0 4px;line-height:1.6;&quot;&gt; NotificationId: int&lt;/p&gt;" style="verticalAlign=top;align=left;overflow=fill;fontSize=14;fontFamily=Helvetica;html=1;rounded=1;shadow=0;comic=0;labelBackgroundColor=none;strokeWidth=1;fillColor=#ffecfc;strokeColor=#AD93A0;arcSize=4;fontColor=default;" parent="1" vertex="1">
          <mxGeometry x="783" y="378" width="178" height="212" as="geometry" />
        </mxCell>
        <mxCell id="node5" value="&lt;p style=&quot;margin:0px;margin-top:4px;text-align:center;&quot;&gt;&lt;b&gt;program_rating&lt;/b&gt;&lt;/p&gt;&lt;hr size=&quot;1&quot;/&gt;&lt;p style=&quot;margin:0 0 0 4px;line-height:1.6;&quot;&gt; Rate: int&lt;br/&gt; DateRated: datetime&lt;/p&gt;&lt;hr size=&quot;1&quot;/&gt;&lt;p style=&quot;margin:0 0 0 4px;line-height:1.6;&quot;&gt; ProgramId: int&lt;br/&gt; UserId: int&lt;/p&gt;" style="verticalAlign=top;align=left;overflow=fill;fontSize=14;fontFamily=Helvetica;html=1;rounded=1;shadow=0;comic=0;labelBackgroundColor=none;strokeWidth=1;fillColor=#ffecfc;strokeColor=#AD93A0;arcSize=4;fontColor=default;" parent="1" vertex="1">
          <mxGeometry x="201" y="1224" width="166" height="156" as="geometry" />
        </mxCell>
        <mxCell id="node13" value="&lt;p style=&quot;margin:0px;margin-top:4px;text-align:center;&quot;&gt;&lt;b&gt;qualification&lt;/b&gt;&lt;/p&gt;&lt;hr size=&quot;1&quot;/&gt;&lt;p style=&quot;margin:0 0 0 4px;line-height:1.6;&quot;&gt; CertificationFilePath: varchar(192)&lt;/p&gt;&lt;hr size=&quot;1&quot;/&gt;&lt;p style=&quot;margin:0 0 0 4px;line-height:1.6;&quot;&gt; UserId: int&lt;/p&gt;" style="verticalAlign=top;align=left;overflow=fill;fontSize=14;fontFamily=Helvetica;html=1;rounded=1;shadow=0;comic=0;labelBackgroundColor=none;strokeWidth=1;fillColor=#ffecfc;strokeColor=#AD93A0;arcSize=4;fontColor=default;" parent="1" vertex="1">
          <mxGeometry x="1456" y="736" width="240" height="95" as="geometry" />
        </mxCell>
        <mxCell id="node18" value="&lt;p style=&quot;margin:0px;margin-top:4px;text-align:center;&quot;&gt;&lt;b&gt;registration_request&lt;/b&gt;&lt;/p&gt;&lt;hr size=&quot;1&quot;/&gt;&lt;p style=&quot;margin:0 0 0 4px;line-height:1.6;&quot;&gt; IssueDate: datetime&lt;br/&gt; CertificationFilePath: varchar(255)&lt;br/&gt; Description: varchar(512)&lt;br/&gt; FirstName: varchar(96)&lt;br/&gt; LastName: varchar(96)&lt;/p&gt;&lt;hr size=&quot;1&quot;/&gt;&lt;p style=&quot;margin:0 0 0 4px;line-height:1.6;&quot;&gt; UserId: int&lt;/p&gt;" style="verticalAlign=top;align=left;overflow=fill;fontSize=14;fontFamily=Helvetica;html=1;rounded=1;shadow=0;comic=0;labelBackgroundColor=none;strokeWidth=1;fillColor=#ffecfc;strokeColor=#AD93A0;arcSize=4;fontColor=default;" parent="1" vertex="1">
          <mxGeometry x="1237" y="142" width="242" height="188" as="geometry" />
        </mxCell>
        <mxCell id="node21" value="&lt;p style=&quot;margin:0px;margin-top:4px;text-align:center;&quot;&gt;&lt;b&gt;trainee&lt;/b&gt;&lt;/p&gt;&lt;hr size=&quot;1&quot;/&gt;&lt;p style=&quot;margin:0 0 0 4px;line-height:1.6;&quot;&gt; Height: decimal(6,2)&lt;br/&gt; Weight: decimal(6,2)&lt;br/&gt; MedicalHistory: varchar(512)&lt;/p&gt;&lt;hr size=&quot;1&quot;/&gt;&lt;p style=&quot;margin:0 0 0 4px;line-height:1.6;&quot;&gt; UserId: int&lt;/p&gt;" style="verticalAlign=top;align=left;overflow=fill;fontSize=14;fontFamily=Helvetica;html=1;rounded=1;shadow=0;comic=0;labelBackgroundColor=none;strokeWidth=1;fillColor=#ffecfc;strokeColor=#AD93A0;arcSize=4;fontColor=default;" parent="1" vertex="1">
          <mxGeometry x="479" y="998" width="207" height="147" as="geometry" />
        </mxCell>
        <mxCell id="node3" value="&lt;p style=&quot;margin:0px;margin-top:4px;text-align:center;&quot;&gt;&lt;b&gt;trainee_exercising&lt;/b&gt;&lt;/p&gt;&lt;hr size=&quot;1&quot;/&gt;&lt;p style=&quot;margin:0 0 0 4px;line-height:1.6;&quot;&gt; ProgramId: int&lt;br/&gt; DateTaken: datetime&lt;br/&gt; UserId: int&lt;br/&gt; ProgramScheduleId: int&lt;/p&gt;&lt;hr size=&quot;1&quot;/&gt;&lt;p style=&quot;margin:0 0 0 4px;line-height:1.6;&quot;&gt; Id: int&lt;/p&gt;" style="verticalAlign=top;align=left;overflow=fill;fontSize=14;fontFamily=Helvetica;html=1;rounded=1;shadow=0;comic=0;labelBackgroundColor=none;strokeWidth=1;fillColor=#ffecfc;strokeColor=#AD93A0;arcSize=4;fontColor=default;" parent="1" vertex="1">
          <mxGeometry x="-9" y="1212" width="190" height="168" as="geometry" />
        </mxCell>
        <mxCell id="node14" value="&lt;p style=&quot;margin:0px;margin-top:4px;text-align:center;&quot;&gt;&lt;b&gt;trainee_on_training_program&lt;/b&gt;&lt;/p&gt;&lt;hr size=&quot;1&quot;/&gt;&lt;p style=&quot;margin:0 0 0 4px;line-height:1.6;&quot;&gt; JoinDate: datetime&lt;/p&gt;&lt;hr size=&quot;1&quot;/&gt;&lt;p style=&quot;margin:0 0 0 4px;line-height:1.6;&quot;&gt; UserId: int&lt;br/&gt; ProgramId: int&lt;/p&gt;" style="verticalAlign=top;align=left;overflow=fill;fontSize=14;fontFamily=Helvetica;html=1;rounded=1;shadow=0;comic=0;labelBackgroundColor=none;strokeWidth=1;fillColor=#ffecfc;strokeColor=#AD93A0;arcSize=4;fontColor=default;" parent="1" vertex="1">
          <mxGeometry x="620" y="1236" width="277" height="121" as="geometry" />
        </mxCell>
        <mxCell id="node11" value="&lt;p style=&quot;margin:0px;margin-top:4px;text-align:center;&quot;&gt;&lt;b&gt;trainer&lt;/b&gt;&lt;/p&gt;&lt;hr size=&quot;1&quot;/&gt;&lt;p style=&quot;margin:0 0 0 4px;line-height:1.6;&quot;&gt; Biography: varchar(512)&lt;br/&gt; ContactInfo: varchar(32)&lt;/p&gt;&lt;hr size=&quot;1&quot;/&gt;&lt;p style=&quot;margin:0 0 0 4px;line-height:1.6;&quot;&gt; UserId: int&lt;/p&gt;" style="verticalAlign=top;align=left;overflow=fill;fontSize=14;fontFamily=Helvetica;html=1;rounded=1;shadow=0;comic=0;labelBackgroundColor=none;strokeWidth=1;fillColor=#ffecfc;strokeColor=#AD93A0;arcSize=4;fontColor=default;" parent="1" vertex="1">
          <mxGeometry x="981" y="426" width="181" height="121" as="geometry" />
        </mxCell>
        <mxCell id="node22" value="&lt;p style=&quot;margin:0px;margin-top:4px;text-align:center;&quot;&gt;&lt;b&gt;training_program&lt;/b&gt;&lt;/p&gt;&lt;hr size=&quot;1&quot;/&gt;&lt;p style=&quot;margin:0 0 0 4px;line-height:1.6;&quot;&gt; Name: varchar(128)&lt;br/&gt; Difficulty: tinyint&lt;br/&gt; TrainingDuration: int&lt;br/&gt; Description: varchar(512)&lt;br/&gt; Requirements: varchar(512)&lt;br/&gt; CreatedAt: datetime&lt;br/&gt; UserId: int&lt;br/&gt; Deleted: tinyint(1)&lt;br/&gt; ImageFilePath: varchar(255)&lt;/p&gt;&lt;hr size=&quot;1&quot;/&gt;&lt;p style=&quot;margin:0 0 0 4px;line-height:1.6;&quot;&gt; ProgramId: int&lt;/p&gt;" style="verticalAlign=top;align=left;overflow=fill;fontSize=14;fontFamily=Helvetica;html=1;rounded=1;shadow=0;comic=0;labelBackgroundColor=none;strokeWidth=1;fillColor=#ffecfc;strokeColor=#AD93A0;arcSize=4;fontColor=default;" parent="1" vertex="1">
          <mxGeometry x="652" y="640" width="203" height="280" as="geometry" />
        </mxCell>
        <mxCell id="node10" value="&lt;p style=&quot;margin:0px;margin-top:4px;text-align:center;&quot;&gt;&lt;b&gt;training_program_application&lt;/b&gt;&lt;/p&gt;&lt;hr size=&quot;1&quot;/&gt;&lt;p style=&quot;margin:0 0 0 4px;line-height:1.6;&quot;&gt; MarkRead: tinyint(1)&lt;br/&gt; SubmissionDate: datetime&lt;br/&gt; Note: varchar(512)&lt;/p&gt;&lt;hr size=&quot;1&quot;/&gt;&lt;p style=&quot;margin:0 0 0 4px;line-height:1.6;&quot;&gt; UserId: int&lt;br/&gt; ProgramId: int&lt;/p&gt;" style="verticalAlign=top;align=left;overflow=fill;fontSize=14;fontFamily=Helvetica;html=1;rounded=1;shadow=0;comic=0;labelBackgroundColor=none;strokeWidth=1;fillColor=#ffecfc;strokeColor=#AD93A0;arcSize=4;fontColor=default;" parent="1" vertex="1">
          <mxGeometry x="917" y="1212" width="284" height="168" as="geometry" />
        </mxCell>
        <mxCell id="node8" value="&lt;p style=&quot;margin:0px;margin-top:4px;text-align:center;&quot;&gt;&lt;b&gt;training_program_category&lt;/b&gt;&lt;/p&gt;&lt;hr size=&quot;1&quot;/&gt;&lt;p style=&quot;margin:0 0 0 4px;line-height:1.6;&quot;&gt; ProgramId: int&lt;br/&gt; CategoryId: int&lt;/p&gt;" style="verticalAlign=top;align=left;overflow=fill;fontSize=14;fontFamily=Helvetica;html=1;rounded=1;shadow=0;comic=0;labelBackgroundColor=none;strokeWidth=1;fillColor=#ffecfc;strokeColor=#AD93A0;arcSize=4;fontColor=default;" parent="1" vertex="1">
          <mxGeometry x="1224" y="1023" width="265" height="94" as="geometry" />
        </mxCell>
        <mxCell id="node16" value="&lt;p style=&quot;margin:0px;margin-top:4px;text-align:center;&quot;&gt;&lt;b&gt;training_program_exercise&lt;/b&gt;&lt;/p&gt;&lt;hr size=&quot;1&quot;/&gt;&lt;p style=&quot;margin:0 0 0 4px;line-height:1.6;&quot;&gt; Position: int&lt;br/&gt; ExerciseId: int&lt;br/&gt; ProgramId: int&lt;/p&gt;&lt;hr size=&quot;1&quot;/&gt;&lt;p style=&quot;margin:0 0 0 4px;line-height:1.6;&quot;&gt; Id: int&lt;/p&gt;" style="verticalAlign=top;align=left;overflow=fill;fontSize=14;fontFamily=Helvetica;html=1;rounded=1;shadow=0;comic=0;labelBackgroundColor=none;strokeWidth=1;fillColor=#ffecfc;strokeColor=#AD93A0;arcSize=4;fontColor=default;" parent="1" vertex="1">
          <mxGeometry x="1365" y="1224" width="260" height="147" as="geometry" />
        </mxCell>
        <mxCell id="node9" value="&lt;p style=&quot;margin:0px;margin-top:4px;text-align:center;&quot;&gt;&lt;b&gt;training_program_on_schedule&lt;/b&gt;&lt;/p&gt;&lt;hr size=&quot;1&quot;/&gt;&lt;p style=&quot;margin:0 0 0 4px;line-height:1.6;&quot;&gt; StartTime: time&lt;br/&gt; DayOfWeek: tinyint&lt;br/&gt; ProgramId: int&lt;/p&gt;&lt;hr size=&quot;1&quot;/&gt;&lt;p style=&quot;margin:0 0 0 4px;line-height:1.6;&quot;&gt; Id: int&lt;/p&gt;" style="verticalAlign=top;align=left;overflow=fill;fontSize=14;fontFamily=Helvetica;html=1;rounded=1;shadow=0;comic=0;labelBackgroundColor=none;strokeWidth=1;fillColor=#ffecfc;strokeColor=#AD93A0;arcSize=4;fontColor=default;" parent="1" vertex="1">
          <mxGeometry x="-149" y="998" width="293" height="147" as="geometry" />
        </mxCell>
        <mxCell id="node6" value="&lt;p style=&quot;margin:0px;margin-top:4px;text-align:center;&quot;&gt;&lt;b&gt;user&lt;/b&gt;&lt;/p&gt;&lt;hr size=&quot;1&quot;/&gt;&lt;p style=&quot;margin:0 0 0 4px;line-height:1.6;&quot;&gt; FirstName: varchar(96)&lt;br/&gt; LastName: varchar(96)&lt;br/&gt; DateOfBirth: date&lt;br/&gt; Gender: tinyint&lt;br/&gt; ProfilePictureFilePath: varchar(255)&lt;/p&gt;&lt;hr size=&quot;1&quot;/&gt;&lt;p style=&quot;margin:0 0 0 4px;line-height:1.6;&quot;&gt; UserId: int&lt;/p&gt;" style="verticalAlign=top;align=left;overflow=fill;fontSize=14;fontFamily=Helvetica;html=1;rounded=1;shadow=0;comic=0;labelBackgroundColor=none;strokeWidth=1;fillColor=#ffecfc;strokeColor=#AD93A0;arcSize=4;fontColor=default;" parent="1" vertex="1">
          <mxGeometry x="797" y="142" width="250" height="188" as="geometry" />
        </mxCell>
        <mxCell id="node12" value="&lt;p style=&quot;margin:0px;margin-top:4px;text-align:center;&quot;&gt;&lt;b&gt;user_account&lt;/b&gt;&lt;/p&gt;&lt;hr size=&quot;1&quot;/&gt;&lt;p style=&quot;margin:0 0 0 4px;line-height:1.6;&quot;&gt; Username: varchar(64)&lt;br/&gt; Password: varchar(512)&lt;br/&gt; Email: varchar(128)&lt;br/&gt; Enabled: tinyint(1)&lt;br/&gt; Role: tinyint&lt;br/&gt; CreatedAt: datetime&lt;br/&gt; LastAccessed: datetime&lt;/p&gt;&lt;hr size=&quot;1&quot;/&gt;&lt;p style=&quot;margin:0 0 0 4px;line-height:1.6;&quot;&gt; UserId: int&lt;/p&gt;" style="verticalAlign=top;align=left;overflow=fill;fontSize=14;fontFamily=Helvetica;html=1;rounded=1;shadow=0;comic=0;labelBackgroundColor=none;strokeWidth=1;fillColor=#ffecfc;strokeColor=#AD93A0;arcSize=4;" parent="1" vertex="1">
          <mxGeometry x="1053" y="-140" width="178" height="232" as="geometry" />
        </mxCell>
        <mxCell id="edge14" value="" style="html=1;rounded=1;edgeStyle=orthogonalEdgeStyle;dashed=0;startArrow=none;endArrow=block;endSize=12;strokeColor=#595959;exitX=0.500;exitY=0.000;exitDx=0;exitDy=0;entryX=0.500;entryY=1.000;entryDx=0;entryDy=0;" parent="1" source="node2" target="node12" edge="1">
          <mxGeometry width="50" height="50" relative="1" as="geometry">
            <Array as="points" />
          </mxGeometry>
        </mxCell>
        <mxCell id="label86" value="UserId" style="edgeLabel;resizable=0;html=1;align=left;verticalAlign=top;strokeColor=default;labelBackgroundColor=none;" parent="edge14" vertex="1" connectable="0">
          <mxGeometry x="1101" y="137" as="geometry" />
        </mxCell>
        <mxCell id="edge11" value="" style="html=1;rounded=1;edgeStyle=orthogonalEdgeStyle;dashed=0;startArrow=none;endArrow=block;endSize=12;strokeColor=#595959;exitX=0.250;exitY=0.000;exitDx=0;exitDy=0;entryX=0.500;entryY=1.000;entryDx=0;entryDy=0;" parent="1" source="node7" target="node21" edge="1">
          <mxGeometry width="50" height="50" relative="1" as="geometry">
            <Array as="points">
              <mxPoint x="428" y="1190" />
              <mxPoint x="582" y="1190" />
            </Array>
          </mxGeometry>
        </mxCell>
        <mxCell id="label68" value="UserId" style="edgeLabel;resizable=0;html=1;align=left;verticalAlign=top;strokeColor=default;labelBackgroundColor=none;" parent="edge11" vertex="1" connectable="0">
          <mxGeometry x="452" y="1170" as="geometry">
            <mxPoint x="-3" y="-1" as="offset" />
          </mxGeometry>
        </mxCell>
        <mxCell id="edge31" value="" style="html=1;rounded=1;edgeStyle=orthogonalEdgeStyle;dashed=0;startArrow=none;endArrow=block;endSize=12;strokeColor=#595959;exitX=0.750;exitY=0.000;exitDx=0;exitDy=0;entryX=0.500;entryY=1.000;entryDx=0;entryDy=0;" parent="1" source="node7" target="node22" edge="1">
          <mxGeometry width="50" height="50" relative="1" as="geometry">
            <Array as="points">
              <mxPoint x="511" y="1180" />
              <mxPoint x="789" y="1180" />
              <mxPoint x="789" y="952" />
              <mxPoint x="754" y="952" />
            </Array>
          </mxGeometry>
        </mxCell>
        <mxCell id="label188" value="ProgramId" style="edgeLabel;resizable=0;html=1;align=left;verticalAlign=top;strokeColor=default;labelBackgroundColor=none;" parent="edge31" vertex="1" connectable="0">
          <mxGeometry x="727" y="1056" as="geometry" />
        </mxCell>
        <mxCell id="edge8" value="" style="html=1;rounded=1;edgeStyle=orthogonalEdgeStyle;dashed=0;startArrow=none;endArrow=block;endSize=12;strokeColor=#595959;exitX=0.290;exitY=0.000;exitDx=0;exitDy=0;entryX=0.250;entryY=1.000;entryDx=0;entryDy=0;" parent="1" source="node0" target="node19" edge="1">
          <mxGeometry width="50" height="50" relative="1" as="geometry">
            <Array as="points">
              <mxPoint x="1758" y="952" />
              <mxPoint x="1758" y="952" />
            </Array>
          </mxGeometry>
        </mxCell>
        <mxCell id="label50" value="SecondExerciseMetricId:Id" style="edgeLabel;resizable=0;html=1;align=left;verticalAlign=top;strokeColor=default;labelBackgroundColor=none;" parent="edge8" vertex="1" connectable="0">
          <mxGeometry x="1610" y="891" as="geometry">
            <mxPoint x="11" y="-4" as="offset" />
          </mxGeometry>
        </mxCell>
        <mxCell id="edge27" value="" style="html=1;rounded=1;edgeStyle=orthogonalEdgeStyle;dashed=0;startArrow=none;endArrow=block;endSize=12;strokeColor=#595959;exitX=0.707;exitY=0.000;exitDx=0;exitDy=0;entryX=0.750;entryY=1.000;entryDx=0;entryDy=0;" parent="1" source="node0" target="node19" edge="1">
          <mxGeometry width="50" height="50" relative="1" as="geometry">
            <Array as="points">
              <mxPoint x="1843" y="952" />
              <mxPoint x="1843" y="952" />
            </Array>
          </mxGeometry>
        </mxCell>
        <mxCell id="label164" value="FirstExerciseMetricId:Id" style="edgeLabel;resizable=0;html=1;align=left;verticalAlign=top;strokeColor=default;labelBackgroundColor=none;" parent="edge27" vertex="1" connectable="0">
          <mxGeometry x="1843" y="892" as="geometry">
            <mxPoint x="5" y="-2" as="offset" />
          </mxGeometry>
        </mxCell>
        <mxCell id="edge15" value="" style="html=1;rounded=1;edgeStyle=orthogonalEdgeStyle;dashed=0;startArrow=none;endArrow=block;endSize=12;strokeColor=#595959;exitX=0.833;exitY=0.000;exitDx=0;exitDy=0;entryX=0.500;entryY=1.000;entryDx=0;entryDy=0;" parent="1" source="node4" target="node0" edge="1">
          <mxGeometry width="50" height="50" relative="1" as="geometry">
            <Array as="points">
              <mxPoint x="1503" y="1403" />
              <mxPoint x="1801" y="1403" />
            </Array>
          </mxGeometry>
        </mxCell>
        <mxCell id="label92" value="ExerciseId" style="edgeLabel;resizable=0;html=1;align=left;verticalAlign=top;strokeColor=default;labelBackgroundColor=none;" parent="edge15" vertex="1" connectable="0">
          <mxGeometry x="1607" y="1403" as="geometry" />
        </mxCell>
        <mxCell id="edge24" value="" style="html=1;rounded=1;edgeStyle=orthogonalEdgeStyle;dashed=0;startArrow=none;endArrow=block;endSize=12;strokeColor=#595959;exitX=0.167;exitY=0.000;exitDx=0;exitDy=0;" parent="1" edge="1">
          <mxGeometry width="50" height="50" relative="1" as="geometry">
            <Array as="points">
              <mxPoint x="1377" y="1413" />
              <mxPoint x="90" y="1413" />
            </Array>
            <mxPoint x="1377.3980000000001" y="1434" as="sourcePoint" />
            <mxPoint x="90" y="1380" as="targetPoint" />
          </mxGeometry>
        </mxCell>
        <mxCell id="label146" value="TraineeExercisingId:Id" style="edgeLabel;resizable=0;html=1;align=left;verticalAlign=top;strokeColor=default;labelBackgroundColor=none;" parent="edge24" vertex="1" connectable="0">
          <mxGeometry x="667" y="1383" as="geometry">
            <mxPoint x="2" y="-5" as="offset" />
          </mxGeometry>
        </mxCell>
        <mxCell id="edge5" value="" style="html=1;rounded=1;edgeStyle=orthogonalEdgeStyle;dashed=0;startArrow=none;endArrow=block;endSize=12;strokeColor=#595959;exitX=0.460;exitY=0.000;exitDx=0;exitDy=0;entryX=0.250;entryY=1.000;entryDx=0;entryDy=0;" parent="1" source="node4" target="node16" edge="1">
          <mxGeometry width="50" height="50" relative="1" as="geometry">
            <Array as="points">
              <mxPoint x="1431" y="1403" />
              <mxPoint x="1430" y="1403" />
            </Array>
          </mxGeometry>
        </mxCell>
        <mxCell id="label32" value="ProgramExerciseId:Id" style="edgeLabel;resizable=0;html=1;align=left;verticalAlign=top;strokeColor=default;labelBackgroundColor=none;" parent="edge5" vertex="1" connectable="0">
          <mxGeometry x="1308" y="1372" as="geometry" />
        </mxCell>
        <mxCell id="edge26" value="" style="html=1;rounded=1;edgeStyle=orthogonalEdgeStyle;dashed=0;startArrow=none;endArrow=block;endSize=12;strokeColor=#595959;exitX=0.500;exitY=0.000;exitDx=0;exitDy=0;entryX=0.750;entryY=1.000;entryDx=0;entryDy=0;" parent="1" source="node15" target="node16" edge="1">
          <mxGeometry width="50" height="50" relative="1" as="geometry">
            <Array as="points">
              <mxPoint x="1891" y="1392" />
              <mxPoint x="1560" y="1392" />
            </Array>
          </mxGeometry>
        </mxCell>
        <mxCell id="label158" value="ProgramExericseId:Id" style="edgeLabel;resizable=0;html=1;align=left;verticalAlign=top;strokeColor=default;labelBackgroundColor=none;" parent="edge26" vertex="1" connectable="0">
          <mxGeometry x="1648" y="1367" as="geometry" />
        </mxCell>
        <mxCell id="edge19" value="" style="html=1;rounded=1;edgeStyle=orthogonalEdgeStyle;dashed=0;startArrow=none;endArrow=block;endSize=12;strokeColor=#595959;exitX=1.000;exitY=0.503;exitDx=0;exitDy=0;entryX=0.005;entryY=0.564;entryDx=0;entryDy=0;entryPerimeter=0;" parent="1" source="node17" target="node4" edge="1">
          <mxGeometry width="50" height="50" relative="1" as="geometry">
            <Array as="points" />
            <mxPoint x="1290" y="1560" as="targetPoint" />
          </mxGeometry>
        </mxCell>
        <mxCell id="label116" value="ExerciseFeedbackId:Id" style="edgeLabel;resizable=0;html=1;align=left;verticalAlign=top;strokeColor=default;labelBackgroundColor=none;" parent="edge19" vertex="1" connectable="0">
          <mxGeometry x="1197" y="1485" as="geometry" />
        </mxCell>
        <mxCell id="edge2" value="" style="html=1;rounded=1;edgeStyle=orthogonalEdgeStyle;dashed=0;startArrow=none;endArrow=block;endSize=12;strokeColor=#595959;exitX=0.750;exitY=0.000;exitDx=0;exitDy=0;entryX=0.750;entryY=1.000;entryDx=0;entryDy=0;" parent="1" source="node1" target="node6" edge="1">
          <mxGeometry width="50" height="50" relative="1" as="geometry">
            <Array as="points">
              <mxPoint x="917" y="357" />
              <mxPoint x="985" y="357" />
            </Array>
          </mxGeometry>
        </mxCell>
        <mxCell id="label14" value="UserId" style="edgeLabel;resizable=0;html=1;align=left;verticalAlign=top;strokeColor=default;labelBackgroundColor=none;" parent="edge2" vertex="1" connectable="0">
          <mxGeometry x="876" y="358" as="geometry">
            <mxPoint y="-3" as="offset" />
          </mxGeometry>
        </mxCell>
        <mxCell id="edge30" value="" style="html=1;rounded=1;edgeStyle=orthogonalEdgeStyle;dashed=0;startArrow=none;endArrow=block;endSize=12;strokeColor=#595959;exitX=0.429;exitY=0.000;exitDx=0;exitDy=0;entryX=0.250;entryY=1.000;entryDx=0;entryDy=0;" parent="1" source="node1" target="node6" edge="1">
          <mxGeometry width="50" height="50" relative="1" as="geometry">
            <Array as="points">
              <mxPoint x="859" y="352" />
              <mxPoint x="860" y="352" />
            </Array>
          </mxGeometry>
        </mxCell>
        <mxCell id="label182" value="SenderId:UserId" style="edgeLabel;resizable=0;html=1;align=left;verticalAlign=top;strokeColor=default;labelBackgroundColor=none;" parent="edge30" vertex="1" connectable="0">
          <mxGeometry x="761" y="337" as="geometry">
            <mxPoint x="5" y="-6" as="offset" />
          </mxGeometry>
        </mxCell>
        <mxCell id="edge20" value="" style="html=1;rounded=1;edgeStyle=orthogonalEdgeStyle;dashed=0;startArrow=none;endArrow=block;endSize=12;strokeColor=#595959;exitX=0.750;exitY=0.000;exitDx=0;exitDy=0;entryX=0.500;entryY=1.000;entryDx=0;entryDy=0;" parent="1" source="node5" target="node21" edge="1">
          <mxGeometry width="50" height="50" relative="1" as="geometry">
            <Array as="points">
              <mxPoint x="326" y="1190" />
              <mxPoint x="582" y="1190" />
            </Array>
          </mxGeometry>
        </mxCell>
        <mxCell id="label122" value="UserId" style="edgeLabel;resizable=0;html=1;align=left;verticalAlign=top;strokeColor=default;labelBackgroundColor=none;" parent="edge20" vertex="1" connectable="0">
          <mxGeometry x="356" y="1170" as="geometry">
            <mxPoint x="3" y="-1" as="offset" />
          </mxGeometry>
        </mxCell>
        <mxCell id="edge13" value="" style="html=1;rounded=1;edgeStyle=orthogonalEdgeStyle;dashed=0;startArrow=none;endArrow=block;endSize=12;strokeColor=#595959;exitX=0.506;exitY=0.000;exitDx=0;exitDy=0;entryX=0.500;entryY=1.000;entryDx=0;entryDy=0;" parent="1" source="node5" target="node22" edge="1">
          <mxGeometry width="50" height="50" relative="1" as="geometry">
            <Array as="points">
              <mxPoint x="285" y="952" />
              <mxPoint x="754" y="952" />
            </Array>
          </mxGeometry>
        </mxCell>
        <mxCell id="label80" value="ProgramId" style="edgeLabel;resizable=0;html=1;align=left;verticalAlign=top;strokeColor=default;labelBackgroundColor=none;" parent="edge13" vertex="1" connectable="0">
          <mxGeometry x="692" y="925" as="geometry" />
        </mxCell>
        <mxCell id="edge6" value="" style="html=1;rounded=1;edgeStyle=orthogonalEdgeStyle;dashed=0;startArrow=none;endArrow=block;endSize=12;strokeColor=#595959;exitX=0.500;exitY=0.000;exitDx=0;exitDy=0;entryX=0.500;entryY=1.000;entryDx=0;entryDy=0;" parent="1" source="node13" target="node11" edge="1">
          <mxGeometry width="50" height="50" relative="1" as="geometry">
            <Array as="points">
              <mxPoint x="1576" y="613" />
              <mxPoint x="1072" y="613" />
            </Array>
          </mxGeometry>
        </mxCell>
        <mxCell id="label38" value="UserId" style="edgeLabel;resizable=0;html=1;align=left;verticalAlign=top;strokeColor=default;labelBackgroundColor=none;" parent="edge6" vertex="1" connectable="0">
          <mxGeometry x="1303" y="593" as="geometry">
            <mxPoint x="-4" y="-3" as="offset" />
          </mxGeometry>
        </mxCell>
        <mxCell id="edge1" value="" style="html=1;rounded=1;edgeStyle=orthogonalEdgeStyle;dashed=0;startArrow=none;endArrow=block;endSize=12;strokeColor=#595959;exitX=0.500;exitY=0.000;exitDx=0;exitDy=0;entryX=0.500;entryY=1.000;entryDx=0;entryDy=0;" parent="1" source="node18" target="node12" edge="1">
          <mxGeometry width="50" height="50" relative="1" as="geometry">
            <Array as="points">
              <mxPoint x="1358" y="117" />
              <mxPoint x="1142" y="117" />
            </Array>
          </mxGeometry>
        </mxCell>
        <mxCell id="label8" value="UserId" style="edgeLabel;resizable=0;html=1;align=left;verticalAlign=top;strokeColor=default;labelBackgroundColor=none;" parent="edge1" vertex="1" connectable="0">
          <mxGeometry x="1230" y="97" as="geometry" />
        </mxCell>
        <mxCell id="edge28" value="" style="html=1;rounded=1;edgeStyle=orthogonalEdgeStyle;dashed=0;startArrow=none;endArrow=block;endSize=12;strokeColor=#595959;exitX=0.500;exitY=0.000;exitDx=0;exitDy=0;entryX=0.750;entryY=1.000;entryDx=0;entryDy=0;" parent="1" source="node21" target="node6" edge="1">
          <mxGeometry width="50" height="50" relative="1" as="geometry">
            <Array as="points">
              <mxPoint x="582" y="357" />
              <mxPoint x="985" y="357" />
            </Array>
          </mxGeometry>
        </mxCell>
        <mxCell id="label170" value="UserId" style="edgeLabel;resizable=0;html=1;align=left;verticalAlign=top;strokeColor=default;labelBackgroundColor=none;" parent="edge28" vertex="1" connectable="0">
          <mxGeometry x="645" y="337" as="geometry" />
        </mxCell>
        <mxCell id="edge25" value="" style="html=1;rounded=1;edgeStyle=orthogonalEdgeStyle;dashed=0;startArrow=none;endArrow=block;endSize=12;strokeColor=#595959;exitX=0.833;exitY=0.000;exitDx=0;exitDy=0;entryX=0.500;entryY=1.000;entryDx=0;entryDy=0;" parent="1" source="node3" target="node21" edge="1">
          <mxGeometry width="50" height="50" relative="1" as="geometry">
            <Array as="points">
              <mxPoint x="149" y="1190" />
              <mxPoint x="582" y="1190" />
            </Array>
          </mxGeometry>
        </mxCell>
        <mxCell id="label152" value="UserId" style="edgeLabel;resizable=0;html=1;align=left;verticalAlign=top;strokeColor=default;labelBackgroundColor=none;" parent="edge25" vertex="1" connectable="0">
          <mxGeometry x="176" y="1170" as="geometry">
            <mxPoint x="25" y="-1" as="offset" />
          </mxGeometry>
        </mxCell>
        <mxCell id="edge22" value="" style="html=1;rounded=1;edgeStyle=orthogonalEdgeStyle;dashed=0;startArrow=none;endArrow=block;endSize=12;strokeColor=#595959;exitX=0.500;exitY=0.000;exitDx=0;exitDy=0;entryX=0.500;entryY=1.000;entryDx=0;entryDy=0;" parent="1" source="node3" target="node22" edge="1">
          <mxGeometry width="50" height="50" relative="1" as="geometry">
            <Array as="points">
              <mxPoint x="86" y="1180" />
              <mxPoint x="155" y="1180" />
              <mxPoint x="155" y="952" />
              <mxPoint x="754" y="952" />
            </Array>
          </mxGeometry>
        </mxCell>
        <mxCell id="label134" value="ProgramId" style="edgeLabel;resizable=0;html=1;align=left;verticalAlign=top;strokeColor=default;labelBackgroundColor=none;" parent="edge22" vertex="1" connectable="0">
          <mxGeometry x="93" y="970" as="geometry" />
        </mxCell>
        <mxCell id="edge10" value="" style="html=1;rounded=1;edgeStyle=orthogonalEdgeStyle;dashed=0;startArrow=none;endArrow=block;endSize=12;strokeColor=#595959;exitX=0.167;exitY=0.000;exitDx=0;exitDy=0;entryX=0.500;entryY=1.000;entryDx=0;entryDy=0;" parent="1" source="node3" target="node9" edge="1">
          <mxGeometry width="50" height="50" relative="1" as="geometry">
            <Array as="points">
              <mxPoint x="23" y="1190" />
              <mxPoint x="-2" y="1190" />
            </Array>
          </mxGeometry>
        </mxCell>
        <mxCell id="label62" value="ProgramScheduleId:Id" style="edgeLabel;resizable=0;html=1;align=left;verticalAlign=top;strokeColor=default;labelBackgroundColor=none;" parent="edge10" vertex="1" connectable="0">
          <mxGeometry x="-104" y="1191" as="geometry">
            <mxPoint x="-9" y="-11" as="offset" />
          </mxGeometry>
        </mxCell>
        <mxCell id="edge3" value="" style="html=1;rounded=1;edgeStyle=orthogonalEdgeStyle;dashed=0;startArrow=none;endArrow=block;endSize=12;strokeColor=#595959;exitX=0.250;exitY=0.000;exitDx=0;exitDy=0;entryX=0.500;entryY=1.000;entryDx=0;entryDy=0;" parent="1" source="node14" target="node21" edge="1">
          <mxGeometry width="50" height="50" relative="1" as="geometry">
            <Array as="points">
              <mxPoint x="689" y="1190" />
              <mxPoint x="582" y="1190" />
            </Array>
          </mxGeometry>
        </mxCell>
        <mxCell id="label20" value="UserId" style="edgeLabel;resizable=0;html=1;align=left;verticalAlign=top;strokeColor=default;labelBackgroundColor=none;" parent="edge3" vertex="1" connectable="0">
          <mxGeometry x="648" y="1203" as="geometry" />
        </mxCell>
        <mxCell id="edge9" value="" style="html=1;rounded=1;edgeStyle=orthogonalEdgeStyle;dashed=0;startArrow=none;endArrow=block;endSize=12;strokeColor=#595959;exitX=0.750;exitY=0.000;exitDx=0;exitDy=0;entryX=0.500;entryY=1.000;entryDx=0;entryDy=0;" parent="1" source="node14" target="node22" edge="1">
          <mxGeometry width="50" height="50" relative="1" as="geometry">
            <Array as="points">
              <mxPoint x="828" y="1180" />
              <mxPoint x="865" y="1180" />
              <mxPoint x="865" y="952" />
              <mxPoint x="754" y="952" />
            </Array>
          </mxGeometry>
        </mxCell>
        <mxCell id="label56" value="ProgramId" style="edgeLabel;resizable=0;html=1;align=left;verticalAlign=top;strokeColor=default;labelBackgroundColor=none;" parent="edge9" vertex="1" connectable="0">
          <mxGeometry x="803" y="1056" as="geometry" />
        </mxCell>
        <mxCell id="edge16" value="" style="html=1;rounded=1;edgeStyle=orthogonalEdgeStyle;dashed=0;startArrow=none;endArrow=block;endSize=12;strokeColor=#595959;exitX=0.500;exitY=0.000;exitDx=0;exitDy=0;entryX=0.750;entryY=1.000;entryDx=0;entryDy=0;" parent="1" source="node11" target="node6" edge="1">
          <mxGeometry width="50" height="50" relative="1" as="geometry">
            <Array as="points">
              <mxPoint x="1072" y="357" />
              <mxPoint x="985" y="357" />
            </Array>
          </mxGeometry>
        </mxCell>
        <mxCell id="label98" value="UserId" style="edgeLabel;resizable=0;html=1;align=left;verticalAlign=top;strokeColor=default;labelBackgroundColor=none;" parent="edge16" vertex="1" connectable="0">
          <mxGeometry x="1008" y="337" as="geometry">
            <mxPoint x="3" y="-7" as="offset" />
          </mxGeometry>
        </mxCell>
        <mxCell id="edge4" value="" style="html=1;rounded=1;edgeStyle=orthogonalEdgeStyle;dashed=0;startArrow=none;endArrow=block;endSize=12;strokeColor=#595959;exitX=0.500;exitY=0.000;exitDx=0;exitDy=0;entryX=0.500;entryY=1.000;entryDx=0;entryDy=0;" parent="1" source="node22" target="node11" edge="1">
          <mxGeometry width="50" height="50" relative="1" as="geometry">
            <Array as="points">
              <mxPoint x="754" y="613" />
              <mxPoint x="1072" y="613" />
            </Array>
          </mxGeometry>
        </mxCell>
        <mxCell id="label26" value="UserId" style="edgeLabel;resizable=0;html=1;align=left;verticalAlign=top;strokeColor=default;labelBackgroundColor=none;" parent="edge4" vertex="1" connectable="0">
          <mxGeometry x="892" y="593" as="geometry">
            <mxPoint x="-3" y="-3" as="offset" />
          </mxGeometry>
        </mxCell>
        <mxCell id="edge0" value="" style="html=1;rounded=1;edgeStyle=orthogonalEdgeStyle;dashed=0;startArrow=none;endArrow=block;endSize=12;strokeColor=#595959;exitX=0.250;exitY=0.000;exitDx=0;exitDy=0;entryX=0.500;entryY=1.000;entryDx=0;entryDy=0;" parent="1" source="node10" target="node21" edge="1">
          <mxGeometry width="50" height="50" relative="1" as="geometry">
            <Array as="points">
              <mxPoint x="988" y="1190" />
              <mxPoint x="582" y="1190" />
            </Array>
          </mxGeometry>
        </mxCell>
        <mxCell id="label2" value="UserId" style="edgeLabel;resizable=0;html=1;align=left;verticalAlign=top;strokeColor=default;labelBackgroundColor=none;" parent="edge0" vertex="1" connectable="0">
          <mxGeometry x="914" y="1170" as="geometry" />
        </mxCell>
        <mxCell id="edge17" value="" style="html=1;rounded=1;edgeStyle=orthogonalEdgeStyle;dashed=0;startArrow=none;endArrow=block;endSize=12;strokeColor=#595959;exitX=0.750;exitY=0.000;exitDx=0;exitDy=0;entryX=0.500;entryY=1.000;entryDx=0;entryDy=0;" parent="1" source="node10" target="node22" edge="1">
          <mxGeometry width="50" height="50" relative="1" as="geometry">
            <Array as="points">
              <mxPoint x="1130" y="1190" />
              <mxPoint x="1064" y="1190" />
              <mxPoint x="1064" y="952" />
              <mxPoint x="754" y="952" />
            </Array>
          </mxGeometry>
        </mxCell>
        <mxCell id="label104" value="ProgramId" style="edgeLabel;resizable=0;html=1;align=left;verticalAlign=top;strokeColor=default;labelBackgroundColor=none;" parent="edge17" vertex="1" connectable="0">
          <mxGeometry x="1002" y="1061" as="geometry" />
        </mxCell>
        <mxCell id="edge21" value="" style="html=1;rounded=1;edgeStyle=orthogonalEdgeStyle;dashed=0;startArrow=none;endArrow=block;endSize=12;strokeColor=#595959;exitX=0.750;exitY=0.000;exitDx=0;exitDy=0;entryX=0.500;entryY=1.000;entryDx=0;entryDy=0;" parent="1" source="node8" target="node20" edge="1">
          <mxGeometry width="50" height="50" relative="1" as="geometry">
            <Array as="points">
              <mxPoint x="1422" y="952" />
              <mxPoint x="1361" y="952" />
            </Array>
          </mxGeometry>
        </mxCell>
        <mxCell id="label128" value="CategoryId" style="edgeLabel;resizable=0;html=1;align=left;verticalAlign=top;strokeColor=default;labelBackgroundColor=none;" parent="edge21" vertex="1" connectable="0">
          <mxGeometry x="1371" y="922" as="geometry" />
        </mxCell>
        <mxCell id="edge7" value="" style="html=1;rounded=1;edgeStyle=orthogonalEdgeStyle;dashed=0;startArrow=none;endArrow=block;endSize=12;strokeColor=#595959;exitX=0.250;exitY=0.000;exitDx=0;exitDy=0;entryX=0.500;entryY=1.000;entryDx=0;entryDy=0;" parent="1" source="node8" target="node22" edge="1">
          <mxGeometry width="50" height="50" relative="1" as="geometry">
            <Array as="points">
              <mxPoint x="1290" y="952" />
              <mxPoint x="754" y="952" />
            </Array>
          </mxGeometry>
        </mxCell>
        <mxCell id="label44" value="ProgramId" style="edgeLabel;resizable=0;html=1;align=left;verticalAlign=top;strokeColor=default;labelBackgroundColor=none;" parent="edge7" vertex="1" connectable="0">
          <mxGeometry x="1221" y="932" as="geometry">
            <mxPoint x="-2" y="-4" as="offset" />
          </mxGeometry>
        </mxCell>
        <mxCell id="edge29" value="" style="html=1;rounded=1;edgeStyle=orthogonalEdgeStyle;dashed=0;startArrow=none;endArrow=block;endSize=12;strokeColor=#595959;exitX=0.750;exitY=0.000;exitDx=0;exitDy=0;entryX=0.500;entryY=1.000;entryDx=0;entryDy=0;" parent="1" source="node16" target="node0" edge="1">
          <mxGeometry width="50" height="50" relative="1" as="geometry">
            <Array as="points">
              <mxPoint x="1560" y="1190" />
              <mxPoint x="1801" y="1190" />
            </Array>
          </mxGeometry>
        </mxCell>
        <mxCell id="label176" value="ExerciseId" style="edgeLabel;resizable=0;html=1;align=left;verticalAlign=top;strokeColor=default;labelBackgroundColor=none;" parent="edge29" vertex="1" connectable="0">
          <mxGeometry x="1650" y="1170" as="geometry">
            <mxPoint x="1" y="-7" as="offset" />
          </mxGeometry>
        </mxCell>
        <mxCell id="edge18" value="" style="html=1;rounded=1;edgeStyle=orthogonalEdgeStyle;dashed=0;startArrow=none;endArrow=block;endSize=12;strokeColor=#595959;exitX=0.250;exitY=0.000;exitDx=0;exitDy=0;entryX=0.500;entryY=1.000;entryDx=0;entryDy=0;" parent="1" source="node16" target="node22" edge="1">
          <mxGeometry width="50" height="50" relative="1" as="geometry">
            <Array as="points">
              <mxPoint x="1430" y="1190" />
              <mxPoint x="1213" y="1190" />
              <mxPoint x="1213" y="952" />
              <mxPoint x="754" y="952" />
            </Array>
          </mxGeometry>
        </mxCell>
        <mxCell id="label110" value="ProgramId" style="edgeLabel;resizable=0;html=1;align=left;verticalAlign=top;strokeColor=default;labelBackgroundColor=none;" parent="edge18" vertex="1" connectable="0">
          <mxGeometry x="1151" y="1061" as="geometry" />
        </mxCell>
        <mxCell id="edge23" value="" style="html=1;rounded=1;edgeStyle=orthogonalEdgeStyle;dashed=0;startArrow=none;endArrow=block;endSize=12;strokeColor=#595959;exitX=0.500;exitY=0.000;exitDx=0;exitDy=0;entryX=0.500;entryY=1.000;entryDx=0;entryDy=0;" parent="1" source="node9" target="node22" edge="1">
          <mxGeometry width="50" height="50" relative="1" as="geometry">
            <Array as="points">
              <mxPoint x="-2" y="952" />
              <mxPoint x="754" y="952" />
            </Array>
          </mxGeometry>
        </mxCell>
        <mxCell id="label140" value="ProgramId" style="edgeLabel;resizable=0;html=1;align=left;verticalAlign=top;strokeColor=default;labelBackgroundColor=none;" parent="edge23" vertex="1" connectable="0">
          <mxGeometry x="357" y="932" as="geometry">
            <mxPoint x="8" y="-6" as="offset" />
          </mxGeometry>
        </mxCell>
        <mxCell id="edge12" value="" style="html=1;rounded=1;edgeStyle=orthogonalEdgeStyle;dashed=0;startArrow=none;endArrow=block;endSize=12;strokeColor=#595959;exitX=0.500;exitY=0.000;exitDx=0;exitDy=0;entryX=0.500;entryY=1.000;entryDx=0;entryDy=0;" parent="1" source="node6" target="node12" edge="1">
          <mxGeometry width="50" height="50" relative="1" as="geometry">
            <Array as="points">
              <mxPoint x="922" y="117" />
              <mxPoint x="1142" y="117" />
            </Array>
          </mxGeometry>
        </mxCell>
        <mxCell id="label74" value="UserId" style="edgeLabel;resizable=0;html=1;align=left;verticalAlign=top;strokeColor=default;labelBackgroundColor=none;" parent="edge12" vertex="1" connectable="0">
          <mxGeometry x="1012" y="97" as="geometry" />
        </mxCell>
      </root>
    </mxGraphModel>
  </diagram>
</mxfile>
